<svg width="14" height="14" viewBox="0 0 14 14" fill="none" xmlns="http://www.w3.org/2000/svg">
<mask id="mask0_7_265" style="mask-type:alpha" maskUnits="userSpaceOnUse" x="0" y="0" width="14" height="14">
<rect width="14" height="14" fill="#D9D9D9"/>
</mask>
<g mask="url(#mask0_7_265)">
<path d="M3.32923 10.85C3.18058 10.85 3.05521 10.8 2.95312 10.7C2.85104 10.5999 2.8 10.476 2.8 10.3281C2.8 10.1802 2.85031 10.0552 2.95094 9.95315C3.05156 9.85107 3.17625 9.80002 3.325 9.80002H3.5V6.30002C3.5 5.45419 3.76007 4.71044 4.28021 4.06877C4.80035 3.42711 5.47361 3.0285 6.3 2.87294V2.10002C6.3 1.90558 6.36806 1.7403 6.50417 1.60419C6.64028 1.46808 6.80555 1.40002 7 1.40002C7.19444 1.40002 7.35972 1.46808 7.49583 1.60419C7.63194 1.7403 7.7 1.90558 7.7 2.10002V2.87294C8.52639 3.0285 9.19965 3.42711 9.71979 4.06877C10.2399 4.71044 10.5 5.45419 10.5 6.30002V9.80002H10.675C10.8237 9.80002 10.9484 9.85005 11.0491 9.95009C11.1497 10.0501 11.2 10.1741 11.2 10.322C11.2 10.4698 11.1497 10.5948 11.0492 10.6969C10.9486 10.799 10.8239 10.85 10.6753 10.85H3.32923ZM6.99694 12.6C6.70731 12.6 6.46042 12.4972 6.25625 12.2916C6.05208 12.086 5.95 11.8388 5.95 11.55H8.05C8.05 11.8417 7.9469 12.0896 7.74069 12.2938C7.53448 12.4979 7.28656 12.6 6.99694 12.6ZM4.55 9.80002H9.45V6.30002C9.45 5.61947 9.21181 5.041 8.73542 4.56461C8.25903 4.08822 7.68055 3.85002 7 3.85002C6.31944 3.85002 5.74097 4.08822 5.26458 4.56461C4.78819 5.041 4.55 5.61947 4.55 6.30002V9.80002ZM1.92427 6.30002C1.77892 6.30002 1.65521 6.24417 1.55312 6.13246C1.45104 6.02075 1.40972 5.89189 1.42917 5.74586C1.49722 5.10419 1.6625 4.50627 1.925 3.95211C2.1875 3.39794 2.53346 2.89545 2.9629 2.44463C3.06819 2.34128 3.19375 2.28718 3.33958 2.28232C3.48542 2.27746 3.61181 2.3285 3.71875 2.43544C3.82569 2.54239 3.87431 2.66634 3.86458 2.80732C3.85486 2.94829 3.79546 3.07312 3.68637 3.18182C3.35932 3.51714 3.09094 3.90675 2.88123 4.35067C2.67152 4.79468 2.53556 5.26383 2.47333 5.75811C2.45778 5.9055 2.39871 6.03266 2.29615 6.13961C2.19358 6.24655 2.06962 6.30002 1.92427 6.30002ZM12.0781 6.30002C11.9302 6.30002 11.8052 6.24655 11.7031 6.13961C11.601 6.03266 11.5403 5.90627 11.5208 5.76044C11.4625 5.25489 11.3264 4.78336 11.1125 4.34586C10.8986 3.90836 10.6264 3.51461 10.2958 3.16461C10.1889 3.05766 10.1306 2.9337 10.1208 2.79273C10.1111 2.65176 10.1597 2.5278 10.2667 2.42086C10.3736 2.31391 10.5024 2.26044 10.6531 2.26044C10.8038 2.26044 10.9326 2.31391 11.0396 2.42086C11.4674 2.85836 11.8125 3.36148 12.075 3.93023C12.3375 4.49898 12.5037 5.10434 12.5737 5.7463C12.5912 5.89184 12.55 6.02051 12.4499 6.13232C12.3499 6.24412 12.2259 6.30002 12.0781 6.30002Z" fill="white"/>
</g>
</svg>
