<svg width="14" height="14" viewBox="0 0 14 14" fill="none" xmlns="http://www.w3.org/2000/svg">
<mask id="mask0_1_451" style="mask-type:alpha" maskUnits="userSpaceOnUse" x="0" y="0" width="14" height="14">
<rect width="14" height="14" fill="#D9D9D9"/>
</mask>
<g mask="url(#mask0_1_451)">
<path d="M4.50626 5.49789L6.54792 2.14373C6.59653 2.05623 6.66148 1.9906 6.74276 1.94685C6.82394 1.9031 6.90969 1.88123 7.00001 1.88123C7.09033 1.88123 7.17608 1.9031 7.25726 1.94685C7.33853 1.9906 7.40348 2.05623 7.45209 2.14373L9.49376 5.49789C9.54237 5.58559 9.56667 5.6777 9.56667 5.77425C9.56667 5.87079 9.54237 5.95853 9.49376 6.03748C9.44514 6.11525 9.38438 6.17845 9.31146 6.22706C9.23855 6.27567 9.1474 6.29998 9.03803 6.29998H4.96199C4.85261 6.29998 4.76146 6.27567 4.68855 6.22706C4.61563 6.17845 4.55487 6.11477 4.50626 6.03602C4.45764 5.95727 4.43334 5.86977 4.43334 5.77352C4.43334 5.67727 4.45764 5.58539 4.50626 5.49789ZM10.15 12.6C9.46945 12.6 8.89098 12.3618 8.41459 11.8854C7.9382 11.409 7.70001 10.8305 7.70001 10.15C7.70001 9.46942 7.9382 8.89095 8.41459 8.41456C8.89098 7.93817 9.46945 7.69998 10.15 7.69998C10.8306 7.69998 11.409 7.93817 11.8854 8.41456C12.3618 8.89095 12.6 9.46942 12.6 10.15C12.6 10.8305 12.3618 11.409 11.8854 11.8854C11.409 12.3618 10.8306 12.6 10.15 12.6ZM2.10001 11.7256V8.57906C2.10001 8.4305 2.15027 8.30518 2.2508 8.2031C2.35133 8.10102 2.47587 8.04998 2.62442 8.04998H5.77092C5.91948 8.04998 6.0448 8.10024 6.14688 8.20077C6.24896 8.3013 6.30001 8.42584 6.30001 8.57439V11.7209C6.30001 11.8694 6.24974 11.9948 6.14921 12.0969C6.04869 12.1989 5.92414 12.25 5.77559 12.25H2.62909C2.48053 12.25 2.35521 12.1997 2.25313 12.0992C2.15105 11.9987 2.10001 11.8741 2.10001 11.7256ZM10.1467 11.55C10.5378 11.55 10.8695 11.415 11.1417 11.145C11.4139 10.8749 11.55 10.5444 11.55 10.1533C11.55 9.7622 11.415 9.43053 11.145 9.15831C10.8749 8.88609 10.5444 8.74998 10.1534 8.74998C9.76223 8.74998 9.43056 8.88497 9.15834 9.15495C8.88612 9.42504 8.75001 9.75559 8.75001 10.1466C8.75001 10.5377 8.885 10.8694 9.15499 11.1416C9.42507 11.4139 9.75562 11.55 10.1467 11.55ZM3.15001 11.2H5.25001V9.09998H3.15001V11.2ZM5.89167 5.24998H8.10834L7.00001 3.42706L5.89167 5.24998Z" fill="#1C1B1F"/>
</g>
</svg>
