<svg width="14" height="14" viewBox="0 0 14 14" fill="none" xmlns="http://www.w3.org/2000/svg">
<mask id="mask0_1_422" style="mask-type:alpha" maskUnits="userSpaceOnUse" x="0" y="0" width="14" height="14">
<rect width="14" height="14" fill="#D9D9D9"/>
</mask>
<g mask="url(#mask0_1_422)">
<path d="M7 12.6C5.95 12.6 5.10417 12.4469 4.4625 12.1406C3.82083 11.8344 3.5 11.4334 3.5 10.9375C3.5 10.7722 3.54132 10.6135 3.62396 10.4614C3.7066 10.3092 3.83056 10.1666 3.99583 10.0334C4.12222 9.95558 4.25833 9.93614 4.40417 9.97502C4.55 10.0139 4.66181 10.0966 4.73958 10.2229C4.81736 10.3493 4.83681 10.483 4.79792 10.624C4.75903 10.765 4.67639 10.8743 4.55 10.9521C4.62778 11.0882 4.92917 11.2219 5.45417 11.3531C5.97917 11.4844 6.49445 11.55 7 11.55C7.50556 11.55 8.02083 11.4844 8.54584 11.3531C9.07083 11.2219 9.37222 11.0882 9.45 10.9521C9.32361 10.8743 9.24097 10.765 9.20209 10.624C9.1632 10.483 9.18264 10.3493 9.26042 10.2229C9.3382 10.0966 9.45 10.0139 9.59584 9.97502C9.74167 9.93614 9.87778 9.95558 10.0042 10.0334C10.1694 10.1666 10.2934 10.3092 10.376 10.4614C10.4587 10.6135 10.5 10.7722 10.5 10.9375C10.5 11.4334 10.1792 11.8344 9.5375 12.1406C8.89583 12.4469 8.05 12.6 7 12.6ZM7.01459 9.53752C7.9382 8.85697 8.63333 8.1594 9.1 7.44482C9.56667 6.73023 9.8 6.02736 9.8 5.33621C9.8 4.38343 9.49861 3.66423 8.89584 3.17861C8.29306 2.69289 7.66111 2.45002 7 2.45002C6.33889 2.45002 5.70695 2.69357 5.10417 3.18065C4.50139 3.66764 4.2 4.38878 4.2 5.34409C4.2 5.97166 4.43333 6.63787 4.9 7.34273C5.36667 8.04759 6.07153 8.77919 7.01459 9.53752ZM7 10.6021C6.89306 10.6021 6.78611 10.5851 6.67917 10.5511C6.57222 10.517 6.475 10.4611 6.3875 10.3834C5.29861 9.50836 4.48681 8.64551 3.95208 7.79482C3.41736 6.94412 3.15 6.12605 3.15 5.34059C3.15 4.69221 3.26667 4.12371 3.5 3.63507C3.73333 3.14643 4.03472 2.73683 4.40417 2.40627C4.77361 2.07572 5.18666 1.82537 5.64331 1.65523C6.09997 1.48509 6.55205 1.40002 6.99956 1.40002C7.44708 1.40002 7.89931 1.48509 8.35625 1.65523C8.8132 1.82537 9.22571 2.07567 9.59379 2.40613C9.96197 2.73659 10.2634 3.14735 10.498 3.63842C10.7327 4.12949 10.85 4.69819 10.85 5.34452C10.85 6.12736 10.5826 6.94412 10.0479 7.79482C9.5132 8.64551 8.70139 9.50836 7.6125 10.3834C7.525 10.4611 7.42778 10.517 7.32084 10.5511C7.21389 10.5851 7.10695 10.6021 7 10.6021ZM7.00306 6.30002C7.29269 6.30002 7.53958 6.19692 7.74375 5.99071C7.94792 5.7845 8.05 5.53659 8.05 5.24696C8.05 4.95734 7.9469 4.71044 7.74069 4.50627C7.53448 4.30211 7.28656 4.20002 6.99694 4.20002C6.70731 4.20002 6.46042 4.30454 6.25625 4.51357C6.05208 4.72259 5.95 4.96808 5.95 5.25002C5.95 5.53197 6.05311 5.77745 6.25931 5.98648C6.46552 6.19551 6.71344 6.30002 7.00306 6.30002Z" fill="#1C1B1F"/>
</g>
</svg>
