<svg width="25" height="24" viewBox="0 0 25 24" fill="none" xmlns="http://www.w3.org/2000/svg">
<path fill-rule="evenodd" clip-rule="evenodd" d="M18.5311 19.6649C18.8398 20.109 18.73 20.7193 18.2859 21.028C17.9696 21.2478 17.6428 21.4502 17.3072 21.6346C16.8332 21.8951 16.2378 21.7221 15.9773 21.2481C15.7167 20.7741 15.8898 20.1787 16.3638 19.9182C16.6397 19.7665 16.9082 19.6002 17.168 19.4197C17.6121 19.111 18.2224 19.2208 18.5311 19.6649ZM2.00011 10.8189C2.54089 10.8293 2.97081 11.2762 2.96036 11.8169C2.95426 12.1332 2.96484 12.4489 2.99173 12.7626C3.03793 13.3014 2.63852 13.7757 2.09962 13.8219C1.56073 13.8681 1.08641 13.4687 1.0402 12.9299C1.00749 12.5483 0.994607 12.1642 1.00204 11.7791C1.01249 11.2383 1.45934 10.8084 2.00011 10.8189ZM13.8232 21.9004C13.8694 22.4393 13.47 22.9136 12.9311 22.9598C12.5495 22.9925 12.1654 23.0054 11.7803 22.998C11.2395 22.9875 10.8096 22.5407 10.82 21.9999C10.8304 21.4592 11.2773 21.0293 11.8181 21.0397C12.1344 21.0458 12.4501 21.0352 12.7637 21.0083C13.3026 20.9621 13.777 21.3615 13.8232 21.9004ZM2.75192 15.976C3.22592 15.7155 3.82137 15.8885 4.08189 16.3625C4.23353 16.6384 4.39984 16.9069 4.58042 17.1667C4.88911 17.6108 4.77931 18.2211 4.33518 18.5298C3.89104 18.8385 3.28075 18.7287 2.97206 18.2845C2.75221 17.9682 2.54983 17.6415 2.36538 17.3059C2.10486 16.8319 2.27792 16.2365 2.75192 15.976ZM5.97871 20.0681C6.25813 19.605 6.86007 19.4561 7.32318 19.7355C7.45771 19.8167 7.59513 19.8949 7.73541 19.9699C7.87569 20.045 8.01697 20.116 8.15914 20.1829C8.64854 20.4132 8.85859 20.9966 8.62829 21.4859C8.398 21.9753 7.81457 22.1854 7.32517 21.9551C7.15258 21.8739 6.98122 21.7878 6.81126 21.6968C6.64131 21.6059 6.47464 21.5111 6.31131 21.4125C5.8482 21.1331 5.69929 20.5312 5.97871 20.0681Z" fill="#AAAAAA"/>
<path fill-rule="evenodd" clip-rule="evenodd" d="M16.9236 4.41833C12.7364 1.69917 7.1376 2.88916 4.41836 7.07627C4.12378 7.52987 3.51724 7.65879 3.06363 7.36421C2.61001 7.06963 2.48109 6.46311 2.77567 6.00951C6.08407 0.915215 12.8959 -0.532622 17.9904 2.7757C23.0848 6.08402 24.5327 12.8957 21.2243 17.99C20.3571 19.3253 19.2473 20.4118 17.9898 21.2272C17.5359 21.5214 16.9295 21.3921 16.6352 20.9382C16.341 20.4844 16.4703 19.878 16.9242 19.5838C17.9555 18.9151 18.867 18.0235 19.5816 16.9232C22.3008 12.7361 21.1108 7.13749 16.9236 4.41833Z" fill="#AAAAAA"/>
<path fill-rule="evenodd" clip-rule="evenodd" d="M2.10972 3.67092C2.64963 3.6386 3.11544 4.04996 3.15013 4.5897L3.28675 6.71531L5.45102 6.58578C5.99093 6.55347 6.45674 6.96482 6.49143 7.50456C6.52612 8.0443 6.11656 8.50805 5.57665 8.54036L2.63031 8.71669C1.98241 8.75547 1.42344 8.26184 1.38181 7.61415L1.19493 4.70671C1.16024 4.16697 1.5698 3.70323 2.10972 3.67092Z" fill="#AAAAAA"/>
<path fill-rule="evenodd" clip-rule="evenodd" d="M12.1144 5.83914C12.6553 5.83914 13.0937 6.27759 13.0937 6.81845V11.1513L16.3331 9.55133C16.818 9.31181 17.4053 9.51075 17.6449 9.99568C17.8844 10.4806 17.6855 11.0679 17.2005 11.3074L12.8307 13.4657C12.0497 13.8515 11.1351 13.2831 11.1351 12.412V6.81845C11.1351 6.27759 11.5735 5.83914 12.1144 5.83914Z" fill="#AAAAAA"/>
</svg>
