<?xml version="1.0"?>
<svg xmlns="http://www.w3.org/2000/svg" width="25" height="24" viewBox="0 0 25 24" fill="none" style="background-color:transparent;">
  <g clip-path="url(#clip0_1415_62)">
    <path d="M24.5 0H0.5V24H24.5V0Z" fill="none"/>
    <path d="M12.5 22C18.0228 22 22.5 17.5228 22.5 12C22.5 6.47715 18.0228 2 12.5 2C6.97715 2 2.5 6.47715 2.5 12C2.5 17.5228 6.97715 22 12.5 22Z" stroke="#AAAAAA" stroke-width="2"/>
    <path d="M16.9637 6.56275L10.6821 9.41805C10.4279 9.53362 10.3673 9.86755 10.5648 10.065L13.9911 13.4914C14.1886 13.6888 14.5225 13.6283 14.6381 13.374L17.4934 7.09242C17.6463 6.75595 17.3002 6.40981 16.9637 6.56275Z" stroke="#AAAAAA" stroke-width="2"/>
    <path d="M7.06272 16.464L9.91802 10.1823C10.0336 9.92807 10.3675 9.86752 10.565 10.065L13.9914 13.4914C14.1888 13.6888 14.1283 14.0228 13.874 14.1384L7.59239 16.9937C7.25592 17.1466 6.90978 16.8005 7.06272 16.464Z" stroke="#AAAAAA" stroke-width="2"/>
  </g>
  <defs>
    <clipPath id="clip0_1415_62">
      <rect width="24" height="24" fill="none" transform="translate(0.5)"/>
    </clipPath>
  </defs>
</svg>
