<svg width="14" height="14" viewBox="0 0 14 14" fill="none" xmlns="http://www.w3.org/2000/svg">
<g clip-path="url(#clip0_7_184)">
<path d="M7 8.44375L8.10833 9.11458C8.21528 9.18264 8.32222 9.18021 8.42917 9.10729C8.53611 9.03438 8.575 8.93472 8.54583 8.80833L8.25417 7.53958L9.24583 6.67917C9.34306 6.59167 9.37222 6.48715 9.33333 6.36562C9.29444 6.2441 9.20694 6.17847 9.07083 6.16875L7.77292 6.06667L7.2625 4.87083C7.21389 4.75417 7.12639 4.69583 7 4.69583C6.87361 4.69583 6.78611 4.75417 6.7375 4.87083L6.22708 6.06667L4.92917 6.16875C4.79306 6.17847 4.70556 6.2441 4.66667 6.36562C4.62778 6.48715 4.65694 6.59167 4.75417 6.67917L5.74583 7.53958L5.45417 8.80833C5.425 8.93472 5.46389 9.03438 5.57083 9.10729C5.67778 9.18021 5.78472 9.18264 5.89167 9.11458L7 8.44375ZM5.04583 11.6667H3.5C3.17917 11.6667 2.90451 11.5524 2.67604 11.324C2.44757 11.0955 2.33333 10.8208 2.33333 10.5V8.95417L1.21042 7.81667C1.10347 7.7 1.02083 7.57118 0.9625 7.43021C0.904167 7.28924 0.875 7.14583 0.875 7C0.875 6.85417 0.904167 6.71076 0.9625 6.56979C1.02083 6.42882 1.10347 6.3 1.21042 6.18333L2.33333 5.04583V3.5C2.33333 3.17917 2.44757 2.90451 2.67604 2.67604C2.90451 2.44757 3.17917 2.33333 3.5 2.33333H5.04583L6.18333 1.21042C6.3 1.10347 6.42882 1.02083 6.56979 0.9625C6.71076 0.904167 6.85417 0.875 7 0.875C7.14583 0.875 7.28924 0.904167 7.43021 0.9625C7.57118 1.02083 7.7 1.10347 7.81667 1.21042L8.95417 2.33333H10.5C10.8208 2.33333 11.0955 2.44757 11.324 2.67604C11.5524 2.90451 11.6667 3.17917 11.6667 3.5V5.04583L12.7896 6.18333C12.8965 6.3 12.9792 6.42882 13.0375 6.56979C13.0958 6.71076 13.125 6.85417 13.125 7C13.125 7.14583 13.0958 7.28924 13.0375 7.43021C12.9792 7.57118 12.8965 7.7 12.7896 7.81667L11.6667 8.95417V10.5C11.6667 10.8208 11.5524 11.0955 11.324 11.324C11.0955 11.5524 10.8208 11.6667 10.5 11.6667H8.95417L7.81667 12.7896C7.7 12.8965 7.57118 12.9792 7.43021 13.0375C7.28924 13.0958 7.14583 13.125 7 13.125C6.85417 13.125 6.71076 13.0958 6.56979 13.0375C6.42882 12.9792 6.3 12.8965 6.18333 12.7896L5.04583 11.6667ZM5.54167 10.5L7 11.9583L8.45833 10.5H10.5V8.45833L11.9583 7L10.5 5.54167V3.5H8.45833L7 2.04167L5.54167 3.5H3.5V5.54167L2.04167 7L3.5 8.45833V10.5H5.54167Z" fill="white"/>
</g>
<defs>
<clipPath id="clip0_7_184">
<rect width="14" height="14" fill="white"/>
</clipPath>
</defs>
</svg>
