<svg width="16" height="16" viewBox="0 0 16 16" fill="none" xmlns="http://www.w3.org/2000/svg">
<path d="M14.2667 9.50004L9.50001 14.2667C9.36668 14.4 9.21668 14.5 9.05001 14.5667C8.88334 14.6334 8.71668 14.6667 8.55001 14.6667C8.38334 14.6667 8.21668 14.6334 8.05001 14.5667C7.88334 14.5 7.73334 14.4 7.60001 14.2667L1.71668 8.38337C1.59445 8.26115 1.50001 8.11948 1.43334 7.95837C1.36668 7.79726 1.33334 7.62782 1.33334 7.45004V2.66671C1.33334 2.30004 1.4639 1.98615 1.72501 1.72504C1.98612 1.46393 2.30001 1.33337 2.66668 1.33337H7.45001C7.62779 1.33337 7.80001 1.36949 7.96668 1.44171C8.13334 1.51393 8.27779 1.61115 8.40001 1.73337L14.2667 7.61671C14.4 7.75004 14.4972 7.90004 14.5583 8.06671C14.6195 8.23337 14.65 8.40004 14.65 8.56671C14.65 8.73337 14.6195 8.89726 14.5583 9.05837C14.4972 9.21948 14.4 9.36671 14.2667 9.50004ZM8.55001 13.3334L13.3167 8.56671L7.43334 2.66671H2.66668V7.43337L8.55001 13.3334ZM4.33334 5.33337C4.61112 5.33337 4.84723 5.23615 5.04168 5.04171C5.23612 4.84726 5.33334 4.61115 5.33334 4.33337C5.33334 4.0556 5.23612 3.81948 5.04168 3.62504C4.84723 3.4306 4.61112 3.33337 4.33334 3.33337C4.05557 3.33337 3.81945 3.4306 3.62501 3.62504C3.43057 3.81948 3.33334 4.0556 3.33334 4.33337C3.33334 4.61115 3.43057 4.84726 3.62501 5.04171C3.81945 5.23615 4.05557 5.33337 4.33334 5.33337Z" fill="url(#paint0_linear_7_222)"/>
<defs>
<linearGradient id="paint0_linear_7_222" x1="3.42596" y1="2.76195" x2="12.0963" y2="15.0374" gradientUnits="userSpaceOnUse">
<stop stop-color="#FF7143"/>
<stop offset="0.494792" stop-color="#FFA827"/>
<stop offset="0.953135" stop-color="#FFC928"/>
</linearGradient>
</defs>
</svg>
