<svg width="16" height="16" viewBox="0 0 16 16" fill="none" xmlns="http://www.w3.org/2000/svg">
<path d="M8.00001 11.6667C8.83334 11.6667 9.54168 11.375 10.125 10.7917C10.7083 10.2083 11 9.5 11 8.66667C11 7.83333 10.7083 7.125 10.125 6.54167C9.54168 5.95833 8.83334 5.66667 8.00001 5.66667C7.16668 5.66667 6.45834 5.95833 5.87501 6.54167C5.29168 7.125 5.00001 7.83333 5.00001 8.66667C5.00001 9.5 5.29168 10.2083 5.87501 10.7917C6.45834 11.375 7.16668 11.6667 8.00001 11.6667ZM8.00001 10.3333C7.53334 10.3333 7.1389 10.1722 6.81668 9.85C6.49445 9.52778 6.33334 9.13333 6.33334 8.66667C6.33334 8.2 6.49445 7.80556 6.81668 7.48333C7.1389 7.16111 7.53334 7 8.00001 7C8.46668 7 8.86112 7.16111 9.18334 7.48333C9.50557 7.80556 9.66668 8.2 9.66668 8.66667C9.66668 9.13333 9.50557 9.52778 9.18334 9.85C8.86112 10.1722 8.46668 10.3333 8.00001 10.3333ZM2.66668 14C2.30001 14 1.98612 13.8694 1.72501 13.6083C1.4639 13.3472 1.33334 13.0333 1.33334 12.6667V4.66667C1.33334 4.3 1.4639 3.98611 1.72501 3.725C1.98612 3.46389 2.30001 3.33333 2.66668 3.33333H4.76668L5.60001 2.43333C5.72223 2.3 5.86945 2.19444 6.04168 2.11667C6.2139 2.03889 6.39445 2 6.58334 2H9.41668C9.60557 2 9.78612 2.03889 9.95834 2.11667C10.1306 2.19444 10.2778 2.3 10.4 2.43333L11.2333 3.33333H13.3333C13.7 3.33333 14.0139 3.46389 14.275 3.725C14.5361 3.98611 14.6667 4.3 14.6667 4.66667V12.6667C14.6667 13.0333 14.5361 13.3472 14.275 13.6083C14.0139 13.8694 13.7 14 13.3333 14H2.66668ZM2.66668 12.6667H13.3333V4.66667H10.6333L9.41668 3.33333H6.58334L5.36668 4.66667H2.66668V12.6667Z" fill="url(#paint0_linear_7_202)"/>
<defs>
<linearGradient id="paint0_linear_7_202" x1="1.6852" y1="2" x2="2.5434" y2="15.0034" gradientUnits="userSpaceOnUse">
<stop stop-color="#2E22AB"/>
<stop offset="0.392635" stop-color="#983ACA"/>
<stop offset="0.777359" stop-color="#F63FA3"/>
<stop offset="1" stop-color="#FFD363"/>
</linearGradient>
</defs>
</svg>
