<svg width="16" height="16" viewBox="0 0 16 16" fill="none" xmlns="http://www.w3.org/2000/svg">
<path d="M0.666656 11.4667C0.666656 11.0889 0.763879 10.7417 0.958323 10.425C1.15277 10.1084 1.4111 9.86669 1.73332 9.70002C2.42221 9.35558 3.12221 9.09724 3.83332 8.92502C4.54443 8.7528 5.26666 8.66669 5.99999 8.66669C6.73332 8.66669 7.45555 8.7528 8.16666 8.92502C8.87777 9.09724 9.57777 9.35558 10.2667 9.70002C10.5889 9.86669 10.8472 10.1084 11.0417 10.425C11.2361 10.7417 11.3333 11.0889 11.3333 11.4667V12C11.3333 12.3667 11.2028 12.6806 10.9417 12.9417C10.6805 13.2028 10.3667 13.3334 9.99999 13.3334H1.99999C1.63332 13.3334 1.31943 13.2028 1.05832 12.9417C0.797212 12.6806 0.666656 12.3667 0.666656 12V11.4667ZM14 13.3334H12.3C12.4222 13.1334 12.5139 12.9195 12.575 12.6917C12.6361 12.4639 12.6667 12.2334 12.6667 12V11.3334C12.6667 10.8445 12.5305 10.375 12.2583 9.92502C11.9861 9.47502 11.6 9.08891 11.1 8.76669C11.6667 8.83335 12.2 8.94724 12.7 9.10835C13.2 9.26946 13.6667 9.46669 14.1 9.70002C14.5 9.92224 14.8055 10.1695 15.0167 10.4417C15.2278 10.7139 15.3333 11.0111 15.3333 11.3334V12C15.3333 12.3667 15.2028 12.6806 14.9417 12.9417C14.6805 13.2028 14.3667 13.3334 14 13.3334ZM5.99999 8.00002C5.26666 8.00002 4.63888 7.73891 4.11666 7.21669C3.59443 6.69447 3.33332 6.06669 3.33332 5.33335C3.33332 4.60002 3.59443 3.97224 4.11666 3.45002C4.63888 2.9278 5.26666 2.66669 5.99999 2.66669C6.73332 2.66669 7.3611 2.9278 7.88332 3.45002C8.40555 3.97224 8.66666 4.60002 8.66666 5.33335C8.66666 6.06669 8.40555 6.69447 7.88332 7.21669C7.3611 7.73891 6.73332 8.00002 5.99999 8.00002ZM12.6667 5.33335C12.6667 6.06669 12.4055 6.69447 11.8833 7.21669C11.3611 7.73891 10.7333 8.00002 9.99999 8.00002C9.87777 8.00002 9.72221 7.98613 9.53332 7.95835C9.34443 7.93058 9.18888 7.90002 9.06666 7.86669C9.36666 7.51113 9.59721 7.11669 9.75832 6.68335C9.91943 6.25002 9.99999 5.80002 9.99999 5.33335C9.99999 4.86669 9.91943 4.41669 9.75832 3.98335C9.59721 3.55002 9.36666 3.15558 9.06666 2.80002C9.22221 2.74446 9.37777 2.70835 9.53332 2.69169C9.68888 2.67502 9.84443 2.66669 9.99999 2.66669C10.7333 2.66669 11.3611 2.9278 11.8833 3.45002C12.4055 3.97224 12.6667 4.60002 12.6667 5.33335ZM1.99999 12H9.99999V11.4667C9.99999 11.3445 9.96943 11.2334 9.90832 11.1334C9.84721 11.0334 9.76666 10.9556 9.66666 10.9C9.06666 10.6 8.4611 10.375 7.84999 10.225C7.23888 10.075 6.62221 10 5.99999 10C5.37777 10 4.7611 10.075 4.14999 10.225C3.53888 10.375 2.93332 10.6 2.33332 10.9C2.23332 10.9556 2.15277 11.0334 2.09166 11.1334C2.03055 11.2334 1.99999 11.3445 1.99999 11.4667V12ZM5.99999 6.66669C6.36666 6.66669 6.68055 6.53613 6.94166 6.27502C7.20277 6.01391 7.33332 5.70002 7.33332 5.33335C7.33332 4.96669 7.20277 4.6528 6.94166 4.39169C6.68055 4.13058 6.36666 4.00002 5.99999 4.00002C5.63332 4.00002 5.31943 4.13058 5.05832 4.39169C4.79721 4.6528 4.66666 4.96669 4.66666 5.33335C4.66666 5.70002 4.79721 6.01391 5.05832 6.27502C5.31943 6.53613 5.63332 6.66669 5.99999 6.66669Z" fill="url(#paint0_linear_7_177)"/>
<defs>
<linearGradient id="paint0_linear_7_177" x1="2.97142" y1="3.80954" x2="8.94959" y2="15.462" gradientUnits="userSpaceOnUse">
<stop stop-color="#5C6CC1"/>
<stop offset="0.494792" stop-color="#43A4F5"/>
<stop offset="0.953135" stop-color="#2BB5F6"/>
</linearGradient>
</defs>
</svg>
