<svg width="16" height="16" viewBox="0 0 16 16" fill="none" xmlns="http://www.w3.org/2000/svg">
<path d="M3.20001 7.79999L1.53334 6.13332C1.40001 5.99999 1.33334 5.84443 1.33334 5.66666C1.33334 5.48888 1.40001 5.33332 1.53334 5.19999L3.20001 3.53332C3.33334 3.39999 3.4889 3.33332 3.66668 3.33332C3.84445 3.33332 4.00001 3.39999 4.13334 3.53332L5.80001 5.19999C5.93334 5.33332 6.00001 5.48888 6.00001 5.66666C6.00001 5.84443 5.93334 5.99999 5.80001 6.13332L4.13334 7.79999C4.00001 7.93332 3.84445 7.99999 3.66668 7.99999C3.4889 7.99999 3.33334 7.93332 3.20001 7.79999ZM6.66668 14.6667C6.47779 14.6667 6.31945 14.6028 6.19168 14.475C6.0639 14.3472 6.00001 14.1889 6.00001 14V11.3333C5.44445 11.2889 4.89445 11.2278 4.35001 11.15C3.80557 11.0722 3.26112 10.9722 2.71668 10.85C2.52779 10.8055 2.37501 10.7 2.25834 10.5333C2.14168 10.3667 2.11112 10.1889 2.16668 9.99999C2.22223 9.8111 2.33612 9.67221 2.50834 9.58332C2.68057 9.49443 2.86112 9.47221 3.05001 9.51666C3.86112 9.70555 4.68057 9.83332 5.50834 9.89999C6.33612 9.96666 7.16668 9.99999 8.00001 9.99999C8.83334 9.99999 9.6639 9.96666 10.4917 9.89999C11.3195 9.83332 12.1389 9.70555 12.95 9.51666C13.1389 9.47221 13.3195 9.49443 13.4917 9.58332C13.6639 9.67221 13.7778 9.8111 13.8333 9.99999C13.8889 10.1889 13.8583 10.3667 13.7417 10.5333C13.625 10.7 13.4722 10.8055 13.2833 10.85C12.7389 10.9722 12.1945 11.0722 11.65 11.15C11.1056 11.2278 10.5556 11.2889 10 11.3333V14C10 14.1889 9.93612 14.3472 9.80834 14.475C9.68056 14.6028 9.52223 14.6667 9.33334 14.6667H6.66668ZM3.66668 6.39999L4.40001 5.66666L3.66668 4.93332L2.93334 5.66666L3.66668 6.39999ZM8.00001 4.66666C7.44445 4.66666 6.97223 4.47221 6.58334 4.08332C6.19445 3.69443 6.00001 3.22221 6.00001 2.66666C6.00001 2.1111 6.19445 1.63888 6.58334 1.24999C6.97223 0.861101 7.44445 0.666656 8.00001 0.666656C8.55557 0.666656 9.02779 0.861101 9.41668 1.24999C9.80556 1.63888 10 2.1111 10 2.66666C10 3.22221 9.80556 3.69443 9.41668 4.08332C9.02779 4.47221 8.55557 4.66666 8.00001 4.66666ZM8.00001 9.33332C7.63334 9.33332 7.31945 9.20277 7.05834 8.94166C6.79723 8.68055 6.66668 8.36666 6.66668 7.99999C6.66668 7.63332 6.79723 7.31943 7.05834 7.05832C7.31945 6.79721 7.63334 6.66666 8.00001 6.66666C8.36668 6.66666 8.68057 6.79721 8.94168 7.05832C9.20279 7.31943 9.33334 7.63332 9.33334 7.99999C9.33334 8.36666 9.20279 8.68055 8.94168 8.94166C8.68057 9.20277 8.36668 9.33332 8.00001 9.33332ZM8.00001 3.33332C8.1889 3.33332 8.34723 3.26943 8.47501 3.14166C8.60279 3.01388 8.66668 2.85555 8.66668 2.66666C8.66668 2.47777 8.60279 2.31943 8.47501 2.19166C8.34723 2.06388 8.1889 1.99999 8.00001 1.99999C7.81112 1.99999 7.65279 2.06388 7.52501 2.19166C7.39723 2.31943 7.33334 2.47777 7.33334 2.66666C7.33334 2.85555 7.39723 3.01388 7.52501 3.14166C7.65279 3.26943 7.81112 3.33332 8.00001 3.33332ZM11.1833 7.66666L10.4167 6.33332C10.3611 6.23332 10.3333 6.12221 10.3333 5.99999C10.3333 5.87777 10.3611 5.76666 10.4167 5.66666L11.1833 4.33332C11.2389 4.22221 11.3167 4.13888 11.4167 4.08332C11.5167 4.02777 11.6278 3.99999 11.75 3.99999H13.25C13.3722 3.99999 13.4833 4.02777 13.5833 4.08332C13.6833 4.13888 13.7611 4.22221 13.8167 4.33332L14.5833 5.66666C14.6389 5.76666 14.6667 5.87777 14.6667 5.99999C14.6667 6.12221 14.6389 6.23332 14.5833 6.33332L13.8167 7.66666C13.7611 7.77777 13.6833 7.8611 13.5833 7.91666C13.4833 7.97221 13.3722 7.99999 13.25 7.99999H11.75C11.6278 7.99999 11.5167 7.97221 11.4167 7.91666C11.3167 7.8611 11.2389 7.77777 11.1833 7.66666ZM12.1333 6.66666H12.8667L13.2333 5.99999L12.8667 5.33332H12.1333L11.7667 5.99999L12.1333 6.66666Z" fill="url(#paint0_linear_7_112)"/>
<defs>
<linearGradient id="paint0_linear_7_112" x1="1.34652" y1="7.6701" x2="14.6734" y2="7.6701" gradientUnits="userSpaceOnUse">
<stop stop-color="#FF7304"/>
<stop offset="1" stop-color="#FB2A77"/>
</linearGradient>
</defs>
</svg>
