<svg width="14" height="14" viewBox="0 0 14 14" fill="none" xmlns="http://www.w3.org/2000/svg">
<path d="M10.115 3.18502C9.97655 3.18502 9.84122 3.22607 9.7261 3.30299C9.61099 3.37991 9.52127 3.48923 9.46829 3.61714C9.4153 3.74505 9.40144 3.8858 9.42845 4.02158C9.45546 4.15737 9.52213 4.2821 9.62003 4.38C9.71792 4.47789 9.84265 4.54456 9.97844 4.57157C10.1142 4.59858 10.255 4.58472 10.3829 4.53174C10.5108 4.47875 10.6201 4.38903 10.697 4.27392C10.7739 4.15881 10.815 4.02347 10.815 3.88502C10.815 3.69937 10.7413 3.52132 10.61 3.39005C10.4787 3.25877 10.3007 3.18502 10.115 3.18502ZM12.7983 4.59669C12.787 4.11269 12.6963 3.63384 12.53 3.17919C12.3817 2.79018 12.1508 2.43793 11.8533 2.14669C11.5645 1.84769 11.2114 1.61829 10.8208 1.47585C10.3674 1.30445 9.888 1.21173 9.40334 1.20169C8.785 1.16669 8.58667 1.16669 7 1.16669C5.41333 1.16669 5.215 1.16669 4.59667 1.20169C4.11201 1.21173 3.63262 1.30445 3.17917 1.47585C2.78931 1.61973 2.43655 1.84893 2.14667 2.14669C1.84767 2.43554 1.61827 2.78861 1.47583 3.17919C1.30443 3.63264 1.21171 4.11203 1.20167 4.59669C1.16667 5.21502 1.16667 5.41335 1.16667 7.00002C1.16667 8.58669 1.16667 8.78502 1.20167 9.40335C1.21171 9.88802 1.30443 10.3674 1.47583 10.8209C1.61827 11.2114 1.84767 11.5645 2.14667 11.8534C2.43655 12.1511 2.78931 12.3803 3.17917 12.5242C3.63262 12.6956 4.11201 12.7883 4.59667 12.7984C5.215 12.8334 5.41333 12.8334 7 12.8334C8.58667 12.8334 8.785 12.8334 9.40334 12.7984C9.888 12.7883 10.3674 12.6956 10.8208 12.5242C11.2114 12.3818 11.5645 12.1524 11.8533 11.8534C12.1521 11.5632 12.3832 11.2106 12.53 10.8209C12.6963 10.3662 12.787 9.88735 12.7983 9.40335C12.7983 8.78502 12.8333 8.58669 12.8333 7.00002C12.8333 5.41335 12.8333 5.21502 12.7983 4.59669ZM11.7483 9.33335C11.7441 9.70364 11.677 10.0705 11.55 10.4184C11.4569 10.6722 11.3073 10.9016 11.1125 11.0892C10.9233 11.282 10.6944 11.4313 10.4417 11.5267C10.0938 11.6537 9.72695 11.7208 9.35667 11.725C8.77334 11.7542 8.5575 11.76 7.02333 11.76C5.48917 11.76 5.27333 11.76 4.69 11.725C4.30552 11.7322 3.92268 11.673 3.55833 11.55C3.31671 11.4497 3.09829 11.3008 2.91667 11.1125C2.72305 10.9251 2.57533 10.6955 2.485 10.4417C2.34258 10.0889 2.26359 9.71365 2.25167 9.33335C2.25167 8.75002 2.21667 8.53419 2.21667 7.00002C2.21667 5.46585 2.21667 5.25002 2.25167 4.66669C2.25428 4.28814 2.32339 3.91299 2.45583 3.55835C2.55853 3.31214 2.71616 3.09265 2.91667 2.91669C3.09389 2.71612 3.31292 2.55683 3.55833 2.45002C3.91391 2.32171 4.28867 2.25465 4.66667 2.25169C5.25 2.25169 5.46583 2.21669 7 2.21669C8.53417 2.21669 8.75 2.21669 9.33333 2.25169C9.70362 2.25593 10.0705 2.323 10.4183 2.45002C10.6834 2.5484 10.9213 2.70835 11.1125 2.91669C11.3037 3.09587 11.453 3.31495 11.55 3.55835C11.6796 3.91357 11.7468 4.28856 11.7483 4.66669C11.7775 5.25002 11.7833 5.46585 11.7833 7.00002C11.7833 8.53419 11.7775 8.75002 11.7483 9.33335ZM7 4.00752C6.40839 4.00867 5.8304 4.18516 5.33905 4.51468C4.8477 4.8442 4.46506 5.31197 4.23945 5.85888C4.01385 6.40579 3.95542 7.00729 4.07155 7.5874C4.18767 8.1675 4.47314 8.70017 4.89188 9.11809C5.31062 9.53602 5.84384 9.82045 6.42417 9.93544C7.0045 10.0504 7.60589 9.99083 8.15236 9.76417C8.69883 9.5375 9.16585 9.15394 9.49441 8.66196C9.82297 8.16997 9.99833 7.59163 9.99833 7.00002C9.99911 6.60633 9.92204 6.21637 9.77156 5.85258C9.62108 5.48878 9.40016 5.15833 9.12151 4.88022C8.84286 4.60211 8.51197 4.38183 8.14788 4.23206C7.78379 4.08229 7.39369 4.00598 7 4.00752ZM7 8.94252C6.61581 8.94252 6.24025 8.8286 5.92081 8.61515C5.60136 8.40171 5.35239 8.09833 5.20537 7.74338C5.05834 7.38844 5.01987 6.99787 5.09483 6.62106C5.16978 6.24425 5.35478 5.89813 5.62645 5.62647C5.89811 5.3548 6.24423 5.1698 6.62104 5.09485C6.99785 5.01989 7.38842 5.05836 7.74336 5.20538C8.09831 5.35241 8.40169 5.60138 8.61513 5.92083C8.82858 6.24027 8.9425 6.61583 8.9425 7.00002C8.9425 7.25511 8.89226 7.50771 8.79464 7.74338C8.69702 7.97906 8.55393 8.1932 8.37356 8.37358C8.19318 8.55395 7.97904 8.69704 7.74336 8.79466C7.50769 8.89228 7.25509 8.94252 7 8.94252Z" fill="#1F1F1F"/>
</svg>
