<svg width="14" height="14" viewBox="0 0 14 14" fill="none" xmlns="http://www.w3.org/2000/svg">
<path d="M12.2501 7.58403H11.0834C10.9181 7.58403 10.7796 7.52813 10.6678 7.41632C10.556 7.30451 10.5001 7.16597 10.5001 7.00069C10.5001 6.83542 10.556 6.69688 10.6678 6.58507C10.7796 6.47326 10.9181 6.41736 11.0834 6.41736H12.2501C12.4154 6.41736 12.5539 6.47326 12.6657 6.58507C12.7775 6.69688 12.8334 6.83542 12.8334 7.00069C12.8334 7.16597 12.7775 7.30451 12.6657 7.41632C12.5539 7.52813 12.4154 7.58403 12.2501 7.58403ZM9.68341 9.80069C9.78064 9.66458 9.90703 9.58681 10.0626 9.56736C10.2181 9.54792 10.364 9.58681 10.5001 9.68403L11.4334 10.384C11.5695 10.4812 11.6473 10.6076 11.6667 10.7632C11.6862 10.9187 11.6473 11.0646 11.5501 11.2007C11.4529 11.3368 11.3265 11.4146 11.1709 11.434C11.0154 11.4535 10.8695 11.4146 10.7334 11.3174L9.80008 10.6174C9.66397 10.5201 9.58619 10.3937 9.56675 10.2382C9.5473 10.0826 9.58619 9.93681 9.68341 9.80069ZM11.4334 3.61736L10.5001 4.31736C10.364 4.41458 10.2181 4.45347 10.0626 4.43403C9.90703 4.41458 9.78064 4.33681 9.68341 4.20069C9.58619 4.06458 9.5473 3.91875 9.56675 3.76319C9.58619 3.60764 9.66397 3.48125 9.80008 3.38403L10.7334 2.68403C10.8695 2.58681 11.0154 2.54792 11.1709 2.56736C11.3265 2.58681 11.4529 2.66458 11.5501 2.80069C11.6473 2.93681 11.6862 3.08264 11.6667 3.23819C11.6473 3.39375 11.5695 3.52014 11.4334 3.61736ZM2.91675 8.75069H2.33341C2.01258 8.75069 1.73793 8.63646 1.50946 8.40799C1.28098 8.17951 1.16675 7.90486 1.16675 7.58403V6.41736C1.16675 6.09653 1.28098 5.82187 1.50946 5.5934C1.73793 5.36493 2.01258 5.25069 2.33341 5.25069H4.66675L6.69383 4.02569C6.88828 3.90903 7.08515 3.90903 7.28446 4.02569C7.48376 4.14236 7.58341 4.3125 7.58341 4.53611V9.46528C7.58341 9.68889 7.48376 9.85903 7.28446 9.97569C7.08515 10.0924 6.88828 10.0924 6.69383 9.97569L4.66675 8.75069H4.08341V10.5007C4.08341 10.666 4.02751 10.8045 3.91571 10.9163C3.8039 11.0281 3.66536 11.084 3.50008 11.084C3.3348 11.084 3.19626 11.0281 3.08446 10.9163C2.97265 10.8045 2.91675 10.666 2.91675 10.5007V8.75069ZM6.41675 8.42986V5.57153L4.98758 6.41736H2.33341V7.58403H4.98758L6.41675 8.42986ZM8.16675 8.95486V5.04653C8.42925 5.27986 8.64071 5.56424 8.80112 5.89965C8.96154 6.23507 9.04175 6.60208 9.04175 7.00069C9.04175 7.39931 8.96154 7.76632 8.80112 8.10174C8.64071 8.43715 8.42925 8.72153 8.16675 8.95486Z" fill="#1F1F1F"/>
</svg>
