<svg width="25" height="24" viewBox="0 0 25 24" fill="none" xmlns="http://www.w3.org/2000/svg">
<g clip-path="url(#clip0_1415_70)">
<path d="M23.8911 8.54445L22.7358 3.68889C22.4937 2.68889 21.6354 2 20.6341 2H5.35018C4.35986 2 3.49058 2.7 3.2595 3.68889L2.10413 8.54445C1.84005 9.67778 2.08213 10.8333 2.78635 11.7444C2.87438 11.8667 2.99542 11.9556 3.09445 12.0667V19.7778C3.09445 21 4.08477 22 5.29516 22H20.7001C21.9105 22 22.9008 21 22.9008 19.7778V12.0667C22.9999 11.9667 23.1209 11.8667 23.2089 11.7556C23.9132 10.8444 24.1662 9.67778 23.8911 8.54445ZM20.6011 4.21111L21.7565 9.06667C21.8665 9.53333 21.7675 10 21.4814 10.3667C21.3273 10.5667 20.9972 10.8889 20.447 10.8889C19.7758 10.8889 19.1926 10.3444 19.1156 9.62222L18.4774 4.22222L20.6011 4.21111ZM14.098 4.22222H16.2547L16.8489 9.24445C16.9039 9.67778 16.7719 10.1111 16.4858 10.4333C16.2437 10.7222 15.8916 10.8889 15.4404 10.8889C14.7032 10.8889 14.098 10.2333 14.098 9.43333V4.22222ZM9.1354 9.24445L9.74059 4.22222H11.8973V9.43333C11.8973 10.2333 11.2921 10.8889 10.4778 10.8889C10.1037 10.8889 9.7626 10.7222 9.49851 10.4333C9.22342 10.1111 9.09138 9.67778 9.1354 9.24445ZM4.23882 9.06667L5.35018 4.22222H7.51787L6.87967 9.62222C6.79164 10.3444 6.21946 10.8889 5.54824 10.8889C5.00907 10.8889 4.66796 10.5667 4.52491 10.3667C4.22782 10.0111 4.12878 9.53333 4.23882 9.06667ZM5.29516 19.7778V13.0778C5.38319 13.0889 5.46021 13.1111 5.54824 13.1111C6.50555 13.1111 7.37483 12.7111 8.01303 12.0556C8.67325 12.7222 9.55353 13.1111 10.5549 13.1111C11.5122 13.1111 12.3704 12.7111 13.0086 12.0778C13.6579 12.7111 14.5381 13.1111 15.5285 13.1111C16.4528 13.1111 17.333 12.7222 17.9932 12.0556C18.6315 12.7111 19.5007 13.1111 20.458 13.1111C20.5461 13.1111 20.6231 13.0889 20.7111 13.0778V19.7778H5.29516Z" fill="#FE4545"/>
</g>
<defs>
<clipPath id="clip0_1415_70">
<rect width="24" height="24" fill="white" transform="translate(0.75)"/>
</clipPath>
</defs>
</svg>
