<svg width="12" height="12" viewBox="0 0 12 12" fill="none" xmlns="http://www.w3.org/2000/svg">
<path d="M9.99805 6.08901V2.02794C9.99805 2.00434 9.97881 1.98556 9.95524 1.9869C9.71266 2.00065 8.49603 2.05863 7.77582 1.88551C7.03868 1.70831 6.06257 1.10656 5.90795 1.00939C5.89467 1.00105 5.87916 1.00089 5.86574 1.00902C5.70741 1.105 4.69625 1.70808 3.99805 1.88551C3.32264 2.05714 2.26648 2.00164 2.04121 1.98727C2.0175 1.98575 1.99805 2.0046 1.99805 2.02836V6.15799C1.99805 7.56343 2.70102 8.87572 3.87102 9.65441L5.86494 10.9815C5.87832 10.9904 5.89569 10.9906 5.9093 10.982L8.03571 9.64329C9.25704 8.87437 9.99805 7.53223 9.99805 6.08901Z" stroke="#09BC78" stroke-width="1.05"/>
<path d="M3.59766 5.79531L5.26043 7.37697C5.27111 7.38714 5.28799 7.38682 5.29828 7.37625L8.39766 4.19531" stroke="#09BC78" stroke-width="1.05" stroke-linecap="round"/>
</svg>
